<?xml version="1.0" standalone="no"?>
<!DOCTYPE svg PUBLIC "-//W3C//DTD SVG 20010904//EN"
 "http://www.w3.org/TR/2001/REC-SVG-20010904/DTD/svg10.dtd">
<svg version="1.0" xmlns="http://www.w3.org/2000/svg"
 width="400.000000pt" height="151.000000pt" viewBox="0 0 400.000000 151.000000"
 preserveAspectRatio="xMidYMid meet">
<metadata>
Created by potrace 1.15, written by Peter Selinger 2001-2017
</metadata>
<g transform="translate(0.000000,151.000000) scale(0.100000,-0.100000)"
fill="#000000" stroke="none">
<path d="M95 850 c5 -8 30 -47 57 -87 26 -40 48 -74 48 -77 0 -2 -10 -6 -21
-8 -20 -3 -18 -8 25 -66 51 -69 55 -82 26 -82 -11 0 -20 -4 -20 -9 0 -7 101
-95 244 -211 34 -28 32 -24 -36 77 -26 40 -48 77 -48 83 0 5 11 10 25 10 14 0
25 3 25 6 0 4 -25 35 -55 69 -30 35 -55 66 -55 69 0 3 9 6 20 6 11 0 20 4 20
9 0 7 -164 148 -245 211 -17 13 -18 13 -10 0z"/>
<path d="M1350 748 c-24 -46 -45 -85 -47 -87 -2 -3 -9 4 -17 14 -13 18 -17 14
-52 -57 -36 -73 -39 -77 -56 -61 -10 9 -20 14 -22 12 -5 -5 -76 -342 -73 -345
1 -2 24 40 51 92 27 52 52 94 56 94 4 0 13 -7 20 -15 7 -8 15 -15 19 -15 4 0
20 36 36 80 30 79 30 79 47 58 9 -13 19 -21 21 -18 7 7 67 323 63 327 -2 2
-23 -34 -46 -79z"/>
</g>
</svg>
