<?xml version="1.0" ?><!DOCTYPE svg  PUBLIC '-//W3C//DTD SVG 1.1//EN'  'http://www.w3.org/Graphics/SVG/1.1/DTD/svg11.dtd'><svg enable-background="new 0 0 32 32" height="32px" version="1.1" viewBox="0 0 32 32" width="32px" xml:space="preserve" xmlns="http://www.w3.org/2000/svg" xmlns:xlink="http://www.w3.org/1999/xlink"><g id="adaptive_responsive_design_1_"><g><g><path d="M1.5,20C1.224,20,1,19.776,1,19.5v-16C1,2.673,1.673,2,2.5,2h27C30.327,2,31,2.673,31,3.5V5     c0,0.276-0.224,0.5-0.5,0.5S30,5.276,30,5V3.5C30,3.225,29.775,3,29.5,3h-27C2.225,3,2,3.225,2,3.5v16C2,19.776,1.776,20,1.5,20z     " fill="#263238"/></g><path d="M16,31h-5.5c-0.276,0-0.5-0.224-0.5-0.5s0.224-0.5,0.5-0.5h1c0.827,0,1.5-0.673,1.5-1.5V26    c0-0.276,0.224-0.5,0.5-0.5S14,25.724,14,26v2.5c0,0.563-0.187,1.082-0.501,1.5H16c0.276,0,0.5,0.224,0.5,0.5S16.276,31,16,31z" fill="#263238"/><path d="M15.5,26h-13C1.673,26,1,25.327,1,24.5v-3C1,21.224,1.224,21,1.5,21h14c0.276,0,0.5,0.224,0.5,0.5    S15.776,22,15.5,22H2v2.5C2,24.775,2.225,25,2.5,25h13c0.276,0,0.5,0.224,0.5,0.5S15.776,26,15.5,26z" fill="#263238"/></g><g><g><g><path d="M21.5,9h5C26.776,9,27,8.776,27,8.5S26.776,8,26.5,8h-5C21.224,8,21,8.224,21,8.5S21.224,9,21.5,9z" fill="#263238"/></g></g><g><g><path d="M23.5,29h1c0.276,0,0.5-0.224,0.5-0.5S24.776,28,24.5,28h-1c-0.276,0-0.5,0.224-0.5,0.5      S23.224,29,23.5,29z" fill="#263238"/></g></g><path d="M28.5,31h-9c-1.379,0-2.5-1.121-2.5-2.5v-20C17,7.121,18.121,6,19.5,6h9C29.879,6,31,7.121,31,8.5v20    C31,29.879,29.879,31,28.5,31z M19.5,7C18.673,7,18,7.673,18,8.5v20c0,0.827,0.673,1.5,1.5,1.5h9c0.827,0,1.5-0.673,1.5-1.5v-20    C30,7.673,29.327,7,28.5,7H19.5z" fill="#263238"/></g></g></svg>